{
  "accessors": [
    {
      "bufferView": 0,
      "byteOffset": 0,
      "componentType": 5126,
      "count": 4,
      "max": [
        -0.0004999999999999999,
        0.0004,
        0.0004
      ],
      "min": [
        -0.0004999999999999999,
        -0.0004,
        -0.0004
      ],
      "type": "VEC3"
    },
    {
      "bufferView": 0,
      "byteOffset": 48,
      "componentType": 5126,
      "count": 16,
      "max": [
        -0.0003999999999999999,
        0.0005,
        0.0004
      ],
      "min": [
        -0.0004999999999999999,
        0.0004,
        -0.0004
      ],
      "type": "VEC3"
    },
    {
      "bufferView": 0,
      "byteOffset": 240,
      "componentType": 5126,
      "count": 16,
      "max": [
        -0.0003999999999999999,
        0.0004,
        -0.0004
      ],
      "min": [
        -0.0004999999999999999,
        -0.0004,
        -0.0005
      ],
      "type": "VEC3"
    },
    {
      "bufferView": 0,
      "byteOffset": 432,
      "componentType": 5126,
      "count": 16,
      "max": [
        -0.0003999999999999999,
        0.0004,
        0.0005
      ],
      "min": [
        -0.0004999999999999999,
        -0.0004,
        0.0004
      ],
      "type": "VEC3"
    },
    {
      "bufferView": 0,
      "byteOffset": 624,
      "componentType": 5126,
      "count": 16,
      "max": [
        -0.0003999999999999999,
        -0.0004,
        0.0004
      ],
      "min": [
        -0.0004999999999999999,
        -0.0005,
        -0.0004
      ],
      "type": "VEC3"
    },
    {
      "bufferView": 0,
      "byteOffset": 816,
      "componentType": 5126,
      "count": 40,
      "max": [
        -0.0003999999999999999,
        0.0005,
        -0.0004
      ],
      "min": [
        -0.0004999999999999999,
        0.0004,
        -0.0005
      ],
      "type": "VEC3"
    },
    {
      "bufferView": 0,
      "byteOffset": 1296,
      "componentType": 5126,
      "count": 40,
      "max": [
        -0.0003999999999999999,
        0.0005,
        0.0005
      ],
      "min": [
        -0.0004999999999999999,
        0.0004,
        0.0004
      ],
      "type": "VEC3"
    },
    {
      "bufferView": 0,
      "byteOffset": 1776,
      "componentType": 5126,
      "count": 4,
      "max": [
        0.0004,
        0.0005,
        0.0004
      ],
      "min": [
        -0.0003999999999999999,
        0.0005,
        -0.0004
      ],
      "type": "VEC3"
    },
    {
      "bufferView": 0,
      "byteOffset": 1824,
      "componentType": 5126,
      "count": 40,
      "max": [
        -0.0003999999999999999,
        -0.0004,
        -0.0004
      ],
      "min": [
        -0.0004999999999999999,
        -0.0005,
        -0.0005
      ],
      "type": "VEC3"
    },
    {
      "bufferView": 0,
      "byteOffset": 2304,
      "componentType": 5126,
      "count": 4,
      "max": [
        0.0004,
        0.0004,
        -0.0005
      ],
      "min": [
        -0.0003999999999999999,
        -0.0004,
        -0.0005
      ],
      "type": "VEC3"
    },
    {
      "bufferView": 0,
      "byteOffset": 2352,
      "componentType": 5126,
      "count": 40,
      "max": [
        -0.0003999999999999999,
        -0.0004,
        0.0005
      ],
      "min": [
        -0.0004999999999999999,
        -0.0005,
        0.0004
      ],
      "type": "VEC3"
    },
    {
      "bufferView": 0,
      "byteOffset": 2832,
      "componentType": 5126,
      "count": 4,
      "max": [
        0.0004,
        0.0004,
        0.0005
      ],
      "min": [
        -0.0003999999999999999,
        -0.0004,
        0.0005
      ],
      "type": "VEC3"
    },
    {
      "bufferView": 0,
      "byteOffset": 2880,
      "componentType": 5126,
      "count": 4,
      "max": [
        0.0004,
        -0.0005,
        0.0004
      ],
      "min": [
        -0.0003999999999999999,
        -0.0005,
        -0.0004
      ],
      "type": "VEC3"
    },
    {
      "bufferView": 0,
      "byteOffset": 2928,
      "componentType": 5126,
      "count": 16,
      "max": [
        0.0004,
        0.0005,
        -0.0004
      ],
      "min": [
        -0.0003999999999999999,
        0.0004,
        -0.0005
      ],
      "type": "VEC3"
    },
    {
      "bufferView": 0,
      "byteOffset": 3120,
      "componentType": 5126,
      "count": 16,
      "max": [
        0.0004,
        0.0005,
        0.0005
      ],
      "min": [
        -0.0003999999999999999,
        0.0004,
        0.0004
      ],
      "type": "VEC3"
    },
    {
      "bufferView": 0,
      "byteOffset": 3312,
      "componentType": 5126,
      "count": 16,
      "max": [
        0.0005,
        0.0005,
        0.0004
      ],
      "min": [
        0.0004,
        0.0004,
        -0.0004
      ],
      "type": "VEC3"
    },
    {
      "bufferView": 0,
      "byteOffset": 3504,
      "componentType": 5126,
      "count": 16,
      "max": [
        0.0004,
        -0.0004,
        -0.0004
      ],
      "min": [
        -0.0003999999999999999,
        -0.0005,
        -0.0005
      ],
      "type": "VEC3"
    },
    {
      "bufferView": 0,
      "byteOffset": 3696,
      "componentType": 5126,
      "count": 16,
      "max": [
        0.0005,
        0.0004,
        -0.0004
      ],
      "min": [
        0.0004,
        -0.0004,
        -0.0005
      ],
      "type": "VEC3"
    },
    {
      "bufferView": 0,
      "byteOffset": 3888,
      "componentType": 5126,
      "count": 16,
      "max": [
        0.0004,
        -0.0004,
        0.0005
      ],
      "min": [
        -0.0003999999999999999,
        -0.0005,
        0.0004
      ],
      "type": "VEC3"
    },
    {
      "bufferView": 0,
      "byteOffset": 4080,
      "componentType": 5126,
      "count": 16,
      "max": [
        0.0005,
        0.0004,
        0.0005
      ],
      "min": [
        0.0004,
        -0.0004,
        0.0004
      ],
      "type": "VEC3"
    },
    {
      "bufferView": 0,
      "byteOffset": 4272,
      "componentType": 5126,
      "count": 16,
      "max": [
        0.0005,
        -0.0004,
        0.0004
      ],
      "min": [
        0.0004,
        -0.0005,
        -0.0004
      ],
      "type": "VEC3"
    },
    {
      "bufferView": 0,
      "byteOffset": 4464,
      "componentType": 5126,
      "count": 40,
      "max": [
        0.0005,
        0.0005,
        -0.0004
      ],
      "min": [
        0.0004,
        0.0004,
        -0.0005
      ],
      "type": "VEC3"
    },
    {
      "bufferView": 0,
      "byteOffset": 4944,
      "componentType": 5126,
      "count": 40,
      "max": [
        0.0005,
        0.0005,
        0.0005
      ],
      "min": [
        0.0004,
        0.0004,
        0.0004
      ],
      "type": "VEC3"
    },
    {
      "bufferView": 0,
      "byteOffset": 5424,
      "componentType": 5126,
      "count": 4,
      "max": [
        0.0005,
        0.0004,
        0.0004
      ],
      "min": [
        0.0005,
        -0.0004,
        -0.0004
      ],
      "type": "VEC3"
    },
    {
      "bufferView": 0,
      "byteOffset": 5472,
      "componentType": 5126,
      "count": 40,
      "max": [
        0.0005,
        -0.0004,
        -0.0004
      ],
      "min": [
        0.0004,
        -0.0005,
        -0.0005
      ],
      "type": "VEC3"
    },
    {
      "bufferView": 0,
      "byteOffset": 5952,
      "componentType": 5126,
      "count": 40,
      "max": [
        0.0005,
        -0.0004,
        0.0005
      ],
      "min": [
        0.0004,
        -0.0005,
        0.0004
      ],
      "type": "VEC3"
    },
    {
      "bufferView": 1,
      "byteOffset": 0,
      "componentType": 5126,
      "count": 4,
      "type": "VEC3"
    },
    {
      "bufferView": 1,
      "byteOffset": 48,
      "componentType": 5126,
      "count": 16,
      "type": "VEC3"
    },
    {
      "bufferView": 1,
      "byteOffset": 240,
      "componentType": 5126,
      "count": 16,
      "type": "VEC3"
    },
    {
      "bufferView": 1,
      "byteOffset": 432,
      "componentType": 5126,
      "count": 16,
      "type": "VEC3"
    },
    {
      "bufferView": 1,
      "byteOffset": 624,
      "componentType": 5126,
      "count": 16,
      "type": "VEC3"
    },
    {
      "bufferView": 1,
      "byteOffset": 816,
      "componentType": 5126,
      "count": 40,
      "type": "VEC3"
    },
    {
      "bufferView": 1,
      "byteOffset": 1296,
      "componentType": 5126,
      "count": 40,
      "type": "VEC3"
    },
    {
      "bufferView": 1,
      "byteOffset": 1776,
      "componentType": 5126,
      "count": 4,
      "type": "VEC3"
    },
    {
      "bufferView": 1,
      "byteOffset": 1824,
      "componentType": 5126,
      "count": 40,
      "type": "VEC3"
    },
    {
      "bufferView": 1,
      "byteOffset": 2304,
      "componentType": 5126,
      "count": 4,
      "type": "VEC3"
    },
    {
      "bufferView": 1,
      "byteOffset": 2352,
      "componentType": 5126,
      "count": 40,
      "type": "VEC3"
    },
    {
      "bufferView": 1,
      "byteOffset": 2832,
      "componentType": 5126,
      "count": 4,
      "type": "VEC3"
    },
    {
      "bufferView": 1,
      "byteOffset": 2880,
      "componentType": 5126,
      "count": 4,
      "type": "VEC3"
    },
    {
      "bufferView": 1,
      "byteOffset": 2928,
      "componentType": 5126,
      "count": 16,
      "type": "VEC3"
    },
    {
      "bufferView": 1,
      "byteOffset": 3120,
      "componentType": 5126,
      "count": 16,
      "type": "VEC3"
    },
    {
      "bufferView": 1,
      "byteOffset": 3312,
      "componentType": 5126,
      "count": 16,
      "type": "VEC3"
    },
    {
      "bufferView": 1,
      "byteOffset": 3504,
      "componentType": 5126,
      "count": 16,
      "type": "VEC3"
    },
    {
      "bufferView": 1,
      "byteOffset": 3696,
      "componentType": 5126,
      "count": 16,
      "type": "VEC3"
    },
    {
      "bufferView": 1,
      "byteOffset": 3888,
      "componentType": 5126,
      "count": 16,
      "type": "VEC3"
    },
    {
      "bufferView": 1,
      "byteOffset": 4080,
      "componentType": 5126,
      "count": 16,
      "type": "VEC3"
    },
    {
      "bufferView": 1,
      "byteOffset": 4272,
      "componentType": 5126,
      "count": 16,
      "type": "VEC3"
    },
    {
      "bufferView": 1,
      "byteOffset": 4464,
      "componentType": 5126,
      "count": 40,
      "type": "VEC3"
    },
    {
      "bufferView": 1,
      "byteOffset": 4944,
      "componentType": 5126,
      "count": 40,
      "type": "VEC3"
    },
    {
      "bufferView": 1,
      "byteOffset": 5424,
      "componentType": 5126,
      "count": 4,
      "type": "VEC3"
    },
    {
      "bufferView": 1,
      "byteOffset": 5472,
      "componentType": 5126,
      "count": 40,
      "type": "VEC3"
    },
    {
      "bufferView": 1,
      "byteOffset": 5952,
      "componentType": 5126,
      "count": 40,
      "type": "VEC3"
    },
    {
      "bufferView": 2,
      "byteOffset": 0,
      "componentType": 5123,
      "count": 6,
      "type": "SCALAR"
    },
    {
      "bufferView": 2,
      "byteOffset": 12,
      "componentType": 5123,
      "count": 42,
      "type": "SCALAR"
    },
    {
      "bufferView": 2,
      "byteOffset": 96,
      "componentType": 5123,
      "count": 42,
      "type": "SCALAR"
    },
    {
      "bufferView": 2,
      "byteOffset": 180,
      "componentType": 5123,
      "count": 42,
      "type": "SCALAR"
    },
    {
      "bufferView": 2,
      "byteOffset": 264,
      "componentType": 5123,
      "count": 42,
      "type": "SCALAR"
    },
    {
      "bufferView": 2,
      "byteOffset": 348,
      "componentType": 5123,
      "count": 168,
      "type": "SCALAR"
    },
    {
      "bufferView": 2,
      "byteOffset": 684,
      "componentType": 5123,
      "count": 168,
      "type": "SCALAR"
    },
    {
      "bufferView": 2,
      "byteOffset": 1020,
      "componentType": 5123,
      "count": 6,
      "type": "SCALAR"
    },
    {
      "bufferView": 2,
      "byteOffset": 1032,
      "componentType": 5123,
      "count": 168,
      "type": "SCALAR"
    },
    {
      "bufferView": 2,
      "byteOffset": 1368,
      "componentType": 5123,
      "count": 6,
      "type": "SCALAR"
    },
    {
      "bufferView": 2,
      "byteOffset": 1380,
      "componentType": 5123,
      "count": 168,
      "type": "SCALAR"
    },
    {
      "bufferView": 2,
      "byteOffset": 1716,
      "componentType": 5123,
      "count": 6,
      "type": "SCALAR"
    },
    {
      "bufferView": 2,
      "byteOffset": 1728,
      "componentType": 5123,
      "count": 6,
      "type": "SCALAR"
    },
    {
      "bufferView": 2,
      "byteOffset": 1740,
      "componentType": 5123,
      "count": 42,
      "type": "SCALAR"
    },
    {
      "bufferView": 2,
      "byteOffset": 1824,
      "componentType": 5123,
      "count": 42,
      "type": "SCALAR"
    },
    {
      "bufferView": 2,
      "byteOffset": 1908,
      "componentType": 5123,
      "count": 42,
      "type": "SCALAR"
    },
    {
      "bufferView": 2,
      "byteOffset": 1992,
      "componentType": 5123,
      "count": 42,
      "type": "SCALAR"
    },
    {
      "bufferView": 2,
      "byteOffset": 2076,
      "componentType": 5123,
      "count": 42,
      "type": "SCALAR"
    },
    {
      "bufferView": 2,
      "byteOffset": 2160,
      "componentType": 5123,
      "count": 42,
      "type": "SCALAR"
    },
    {
      "bufferView": 2,
      "byteOffset": 2244,
      "componentType": 5123,
      "count": 42,
      "type": "SCALAR"
    },
    {
      "bufferView": 2,
      "byteOffset": 2328,
      "componentType": 5123,
      "count": 42,
      "type": "SCALAR"
    },
    {
      "bufferView": 2,
      "byteOffset": 2412,
      "componentType": 5123,
      "count": 168,
      "type": "SCALAR"
    },
    {
      "bufferView": 2,
      "byteOffset": 2748,
      "componentType": 5123,
      "count": 168,
      "type": "SCALAR"
    },
    {
      "bufferView": 2,
      "byteOffset": 3084,
      "componentType": 5123,
      "count": 6,
      "type": "SCALAR"
    },
    {
      "bufferView": 2,
      "byteOffset": 3096,
      "componentType": 5123,
      "count": 168,
      "type": "SCALAR"
    },
    {
      "bufferView": 2,
      "byteOffset": 3432,
      "componentType": 5123,
      "count": 168,
      "type": "SCALAR"
    }
  ],
  "asset": {
    "generator": "Open CASCADE Technology 7.8 [dev.opencascade.org]",
    "version": "2.0"
  },
  "bufferViews": [
    {
      "buffer": 0,
      "byteLength": 6432,
      "byteOffset": 0,
      "byteStride": 12,
      "target": 34962
    },
    {
      "buffer": 0,
      "byteLength": 6432,
      "byteOffset": 6432,
      "byteStride": 12,
      "target": 34962
    },
    {
      "buffer": 0,
      "byteLength": 3768,
      "byteOffset": 12864,
      "target": 34963
    }
  ],
  "buffers": [
    {
      "byteLength": 16632,
      "uri": "cube.bin"
    }
  ],
  "materials": [
    {
      "name": "mat_0",
      "pbrMetallicRoughness": {
        "baseColorFactor": [
          0.168269544839859,
          0.19120186567306519,
          0.21586069464683534,
          1.0
        ]
      },
      "doubleSided": true
    }
  ],
  "meshes": [
    {
      "name": "Body",
      "primitives": [
        {
          "attributes": {
            "NORMAL": 26,
            "POSITION": 0
          },
          "indices": 52,
          "material": 0,
          "mode": 4
        },
        {
          "attributes": {
            "NORMAL": 27,
            "POSITION": 1
          },
          "indices": 53,
          "material": 0,
          "mode": 4
        },
        {
          "attributes": {
            "NORMAL": 28,
            "POSITION": 2
          },
          "indices": 54,
          "material": 0,
          "mode": 4
        },
        {
          "attributes": {
            "NORMAL": 29,
            "POSITION": 3
          },
          "indices": 55,
          "material": 0,
          "mode": 4
        },
        {
          "attributes": {
            "NORMAL": 30,
            "POSITION": 4
          },
          "indices": 56,
          "material": 0,
          "mode": 4
        },
        {
          "attributes": {
            "NORMAL": 31,
            "POSITION": 5
          },
          "indices": 57,
          "material": 0,
          "mode": 4
        },
        {
          "attributes": {
            "NORMAL": 32,
            "POSITION": 6
          },
          "indices": 58,
          "material": 0,
          "mode": 4
        },
        {
          "attributes": {
            "NORMAL": 33,
            "POSITION": 7
          },
          "indices": 59,
          "material": 0,
          "mode": 4
        },
        {
          "attributes": {
            "NORMAL": 34,
            "POSITION": 8
          },
          "indices": 60,
          "material": 0,
          "mode": 4
        },
        {
          "attributes": {
            "NORMAL": 35,
            "POSITION": 9
          },
          "indices": 61,
          "material": 0,
          "mode": 4
        },
        {
          "attributes": {
            "NORMAL": 36,
            "POSITION": 10
          },
          "indices": 62,
          "material": 0,
          "mode": 4
        },
        {
          "attributes": {
            "NORMAL": 37,
            "POSITION": 11
          },
          "indices": 63,
          "material": 0,
          "mode": 4
        },
        {
          "attributes": {
            "NORMAL": 38,
            "POSITION": 12
          },
          "indices": 64,
          "material": 0,
          "mode": 4
        },
        {
          "attributes": {
            "NORMAL": 39,
            "POSITION": 13
          },
          "indices": 65,
          "material": 0,
          "mode": 4
        },
        {
          "attributes": {
            "NORMAL": 40,
            "POSITION": 14
          },
          "indices": 66,
          "material": 0,
          "mode": 4
        },
        {
          "attributes": {
            "NORMAL": 41,
            "POSITION": 15
          },
          "indices": 67,
          "material": 0,
          "mode": 4
        },
        {
          "attributes": {
            "NORMAL": 42,
            "POSITION": 16
          },
          "indices": 68,
          "material": 0,
          "mode": 4
        },
        {
          "attributes": {
            "NORMAL": 43,
            "POSITION": 17
          },
          "indices": 69,
          "material": 0,
          "mode": 4
        },
        {
          "attributes": {
            "NORMAL": 44,
            "POSITION": 18
          },
          "indices": 70,
          "material": 0,
          "mode": 4
        },
        {
          "attributes": {
            "NORMAL": 45,
            "POSITION": 19
          },
          "indices": 71,
          "material": 0,
          "mode": 4
        },
        {
          "attributes": {
            "NORMAL": 46,
            "POSITION": 20
          },
          "indices": 72,
          "material": 0,
          "mode": 4
        },
        {
          "attributes": {
            "NORMAL": 47,
            "POSITION": 21
          },
          "indices": 73,
          "material": 0,
          "mode": 4
        },
        {
          "attributes": {
            "NORMAL": 48,
            "POSITION": 22
          },
          "indices": 74,
          "material": 0,
          "mode": 4
        },
        {
          "attributes": {
            "NORMAL": 49,
            "POSITION": 23
          },
          "indices": 75,
          "material": 0,
          "mode": 4
        },
        {
          "attributes": {
            "NORMAL": 50,
            "POSITION": 24
          },
          "indices": 76,
          "material": 0,
          "mode": 4
        },
        {
          "attributes": {
            "NORMAL": 51,
            "POSITION": 25
          },
          "indices": 77,
          "material": 0,
          "mode": 4
        }
      ]
    }
  ],
  "nodes": [
    {
      "mesh": 0,
      "name": "Body"
    }
  ],
  "scene": 0,
  "scenes": [
    {
      "nodes": [
        0
      ]
    }
  ]
}